<svg width="18" height="20" viewBox="0 0 18 20" fill="none" xmlns="http://www.w3.org/2000/svg">
<path d="M5.87085 5.71973V2.59473C5.87085 2.09745 6.20053 1.62053 6.78737 1.2689C7.3742 0.917271 8.17012 0.719727 9.00003 0.719727C9.82994 0.719727 10.6259 0.917271 11.2127 1.2689C11.7995 1.62053 12.1292 2.09745 12.1292 2.59473V5.71973" stroke="white" stroke-linecap="round" stroke-linejoin="round"/>
<path d="M3.08637 5.71973H14.9136C15.2144 5.71969 15.5117 5.7847 15.785 5.91029C16.0583 6.03589 16.3012 6.2191 16.4971 6.44737C16.6929 6.67564 16.8371 6.94356 16.9197 7.23277C17.0024 7.52199 17.0215 7.82565 16.9758 8.12294L15.6667 16.626C15.5531 17.3649 15.1786 18.0388 14.6111 18.5255C14.0436 19.0122 13.3206 19.2797 12.573 19.2795H5.42595C4.6785 19.2795 3.95574 19.0119 3.38847 18.5252C2.8212 18.0384 2.44689 17.3647 2.33328 16.626L1.02424 8.12294C0.978521 7.82565 0.99763 7.52199 1.08026 7.23277C1.16289 6.94356 1.30708 6.67564 1.50295 6.44737C1.69882 6.2191 1.94173 6.03589 2.21504 5.91029C2.48835 5.7847 2.78559 5.71969 3.08637 5.71973Z" stroke="white" stroke-linecap="round" stroke-linejoin="round"/>
</svg>
