<svg width="18" height="21" viewBox="0 0 18 21" fill="none" xmlns="http://www.w3.org/2000/svg">
<path d="M6.33569 6V2.875C6.33569 2.37772 6.66537 1.90081 7.25221 1.54917C7.83904 1.19754 8.63496 1 9.46487 1C10.2948 1 11.0907 1.19754 11.6775 1.54917C12.2644 1.90081 12.5941 2.37772 12.5941 2.875V6" stroke="white" stroke-linecap="round" stroke-linejoin="round"/>
<path d="M3.55121 6H15.3785C15.6793 5.99996 15.9765 6.06497 16.2498 6.19057C16.5231 6.31616 16.766 6.49937 16.9619 6.72764C17.1578 6.95591 17.302 7.22384 17.3846 7.51305C17.4672 7.80226 17.4863 8.10592 17.4406 8.40321L16.1316 16.9062C16.0179 17.6452 15.6435 18.319 15.076 18.8058C14.5085 19.2925 13.7855 19.56 13.0378 19.5598H5.8908C5.14334 19.5597 4.42058 19.2922 3.85331 18.8054C3.28605 18.3187 2.91174 17.645 2.79812 16.9062L1.48908 8.40321C1.44336 8.10592 1.46247 7.80226 1.5451 7.51305C1.62773 7.22384 1.77192 6.95591 1.96779 6.72764C2.16366 6.49937 2.40658 6.31616 2.67989 6.19057C2.95319 6.06497 3.25043 5.99996 3.55121 6Z" stroke="white" stroke-linecap="round" stroke-linejoin="round"/>
<path d="M6.96484 10.4497L11.9146 15.3995" stroke="white" stroke-linecap="round"/>
<path d="M6.96484 15.4497L11.9146 10.5" stroke="white" stroke-linecap="round"/>
</svg>
