<svg width="13" height="11" viewBox="0 0 13 11" fill="none" xmlns="http://www.w3.org/2000/svg">
<path d="M8.01953 0.237305C8.43572 0.237454 8.81576 0.472529 9.00195 0.844727L9.5957 2.03027C9.71985 2.27855 9.97344 2.43555 10.251 2.43555H11.2637C11.8707 2.43561 12.3633 2.92807 12.3633 3.53516V9.39746C12.3633 10.0046 11.8707 10.497 11.2637 10.4971H1.73633C1.12926 10.497 0.636719 10.0046 0.636719 9.39746V3.53516C0.636719 2.92807 1.12926 2.43561 1.73633 2.43555H2.74902C3.02661 2.43555 3.28016 2.27855 3.4043 2.03027L3.99805 0.844727C4.18424 0.472517 4.5643 0.23744 4.98047 0.237305H8.01953ZM6.5 3.16895C4.88112 3.16895 3.56852 4.48076 3.56836 6.09961C3.56836 7.7186 4.88102 9.03125 6.5 9.03125C8.11895 9.03125 9.43164 7.7186 9.43164 6.09961C9.43148 4.48076 8.11885 3.16895 6.5 3.16895ZM6.5 4.41406C7.43082 4.41406 8.18539 5.16883 8.18555 6.09961C8.18555 7.03052 7.43092 7.78516 6.5 7.78516C5.56908 7.78516 4.81445 7.03052 4.81445 6.09961C4.81461 5.16883 5.56918 4.41406 6.5 4.41406Z" fill="#1A1B22"/>
</svg>
